<svg width="288" height="38" viewBox="0 0 288 38" fill="none" xmlns="http://www.w3.org/2000/svg">
<path d="M124.147 6.88C125.587 6.88 127.093 6.97333 128.667 7.16C130.24 7.32 131.747 7.6 133.187 8L132.627 12.04C131.32 11.9867 129.907 11.9467 128.387 11.92C126.867 11.8933 125.347 11.88 123.827 11.88C122.92 11.88 122.16 11.9333 121.547 12.04C120.933 12.12 120.453 12.3467 120.107 12.72C119.76 13.0667 119.52 13.6667 119.387 14.52C119.28 15.3467 119.373 15.96 119.667 16.36C119.96 16.76 120.627 17.1733 121.667 17.6L126.667 19.68C128.133 20.2933 129.24 20.9733 129.987 21.72C130.733 22.4667 131.2 23.3467 131.387 24.36C131.6 25.3467 131.627 26.52 131.467 27.88C131.2 29.9333 130.667 31.52 129.867 32.64C129.093 33.7333 127.947 34.4933 126.427 34.92C124.933 35.32 122.987 35.52 120.587 35.52C119.573 35.52 118.213 35.44 116.507 35.28C114.8 35.1467 112.96 34.8667 110.987 34.44L111.627 30.12C113.947 30.2 115.813 30.2533 117.227 30.28C118.64 30.3067 119.693 30.32 120.387 30.32C122.12 30.32 123.347 30.16 124.067 29.84C124.787 29.4933 125.24 28.7333 125.427 27.56C125.56 26.68 125.48 26.0533 125.187 25.68C124.893 25.3067 124.293 24.9333 123.387 24.56L118.147 22.32C116.013 21.3867 114.613 20.2667 113.947 18.96C113.307 17.6267 113.107 16.0533 113.347 14.24C113.613 12.1867 114.173 10.64 115.027 9.6C115.907 8.53333 117.107 7.81333 118.627 7.44C120.147 7.06667 121.987 6.88 124.147 6.88ZM144.789 7.4L143.269 18H152.949L154.429 7.4H160.509L156.629 35H150.549L152.309 22.6H142.629L140.909 35H134.789L138.669 7.4H144.789ZM176.571 6.84C179.371 6.84 181.611 7.29333 183.291 8.2C184.971 9.08 186.104 10.5867 186.691 12.72C187.277 14.8267 187.317 17.72 186.811 21.4C186.437 24.1733 185.917 26.48 185.251 28.32C184.584 30.1333 183.717 31.5733 182.651 32.64C181.611 33.68 180.331 34.4267 178.811 34.88C177.291 35.3067 175.504 35.52 173.451 35.52C170.571 35.52 168.291 35.08 166.611 34.2C164.957 33.32 163.851 31.8267 163.291 29.72C162.757 27.5867 162.744 24.6667 163.251 20.96C163.624 18.2667 164.131 16.0133 164.771 14.2C165.437 12.3867 166.291 10.9467 167.331 9.88C168.371 8.78667 169.651 8.01333 171.171 7.56C172.691 7.08 174.491 6.84 176.571 6.84ZM176.451 11.64C175.011 11.64 173.864 11.92 173.011 12.48C172.157 13.04 171.464 14.0267 170.931 15.44C170.424 16.8533 169.984 18.84 169.611 21.4C169.264 23.8533 169.144 25.76 169.251 27.12C169.357 28.4533 169.757 29.3867 170.451 29.92C171.144 30.4533 172.184 30.72 173.571 30.72C174.984 30.72 176.117 30.4533 176.971 29.92C177.851 29.36 178.544 28.3733 179.051 26.96C179.584 25.5467 180.037 23.5467 180.411 20.96C180.784 18.48 180.904 16.5733 180.771 15.24C180.664 13.9067 180.251 12.9733 179.531 12.44C178.837 11.9067 177.811 11.64 176.451 11.64ZM203.875 6.84C206.675 6.84 208.915 7.29333 210.595 8.2C212.275 9.08 213.409 10.5867 213.995 12.72C214.582 14.8267 214.622 17.72 214.115 21.4C213.742 24.1733 213.222 26.48 212.555 28.32C211.889 30.1333 211.022 31.5733 209.955 32.64C208.915 33.68 207.635 34.4267 206.115 34.88C204.595 35.3067 202.809 35.52 200.755 35.52C197.875 35.52 195.595 35.08 193.915 34.2C192.262 33.32 191.155 31.8267 190.595 29.72C190.062 27.5867 190.049 24.6667 190.555 20.96C190.929 18.2667 191.435 16.0133 192.075 14.2C192.742 12.3867 193.595 10.9467 194.635 9.88C195.675 8.78667 196.955 8.01333 198.475 7.56C199.995 7.08 201.795 6.84 203.875 6.84ZM203.755 11.64C202.315 11.64 201.169 11.92 200.315 12.48C199.462 13.04 198.769 14.0267 198.235 15.44C197.729 16.8533 197.289 18.84 196.915 21.4C196.569 23.8533 196.449 25.76 196.555 27.12C196.662 28.4533 197.062 29.3867 197.755 29.92C198.449 30.4533 199.489 30.72 200.875 30.72C202.289 30.72 203.422 30.4533 204.275 29.92C205.155 29.36 205.849 28.3733 206.355 26.96C206.889 25.5467 207.342 23.5467 207.715 20.96C208.089 18.48 208.209 16.5733 208.075 15.24C207.969 13.9067 207.555 12.9733 206.835 12.44C206.142 11.9067 205.115 11.64 203.755 11.64ZM240.553 7.4L239.913 12.2H231.633L228.433 35H222.313L225.513 12.2H217.273L217.953 7.4H240.553ZM249.421 7.28C251.635 7.28 253.875 7.30667 256.141 7.36C258.408 7.38666 260.475 7.49333 262.341 7.68L261.621 12.12H251.301C250.501 12.12 249.915 12.2933 249.541 12.64C249.195 12.96 248.968 13.5067 248.861 14.28L248.261 18.52H259.181L258.661 22.76H247.701L246.941 28.2C246.728 29.5867 247.341 30.28 248.781 30.28H258.981L258.861 34.72C257.021 34.9333 254.995 35.04 252.781 35.04C250.595 35.0667 248.515 35.08 246.541 35.08C244.381 35.08 242.808 34.48 241.821 33.28C240.835 32.08 240.475 30.5067 240.741 28.56L242.981 12.72C243.195 11.04 243.848 9.72 244.941 8.76C246.035 7.77333 247.528 7.28 249.421 7.28ZM277.151 7C279.364 7 281.218 7.26667 282.711 7.8C284.231 8.30667 285.311 9.17333 285.951 10.4C286.618 11.6 286.804 13.28 286.511 15.44C286.244 17.28 285.658 18.7867 284.751 19.96C283.871 21.1067 282.391 21.8 280.311 22.04L280.271 22.28C280.991 22.44 281.671 22.84 282.311 23.48C282.951 24.0933 283.364 25.1067 283.551 26.52L284.951 35H278.671L277.511 26.44C277.378 25.56 277.124 24.9733 276.751 24.68C276.404 24.36 275.871 24.2 275.151 24.2C274.191 24.2 273.324 24.2 272.551 24.2C271.804 24.1733 271.111 24.16 270.471 24.16L268.951 35H262.991L266.871 7.4C267.991 7.29333 269.044 7.21333 270.031 7.16C271.018 7.10667 272.071 7.06667 273.191 7.04C274.311 7.01333 275.631 7 277.151 7ZM277.071 11.6C276.164 11.6 275.298 11.6 274.471 11.6C273.671 11.6 272.924 11.6133 272.231 11.64L271.111 19.6H275.591C276.658 19.6 277.511 19.48 278.151 19.24C278.791 19 279.284 18.5733 279.631 17.96C279.978 17.3467 280.244 16.4667 280.431 15.32C280.618 13.88 280.471 12.9067 279.991 12.4C279.511 11.8667 278.538 11.6 277.071 11.6Z" fill="#003366"/>
<path d="M10.6909 7.28C12.9043 7.28 15.1443 7.30667 17.4109 7.36C19.6776 7.38666 21.7443 7.49333 23.6109 7.68L22.8909 12.12H12.5709C11.7709 12.12 11.1843 12.2933 10.8109 12.64C10.4643 12.96 10.2376 13.5067 10.1309 14.28L9.53094 18.52H20.4509L19.9309 22.76H8.97094L8.21094 28.2C7.9976 29.5867 8.61094 30.28 10.0509 30.28H20.2509L20.1309 34.72C18.2909 34.9333 16.2643 35.04 14.0509 35.04C11.8643 35.0667 9.78427 35.08 7.81094 35.08C5.65094 35.08 4.0776 34.48 3.09094 33.28C2.10427 32.08 1.74427 30.5067 2.01094 28.56L4.25094 12.72C4.46427 11.04 5.1176 9.72 6.21094 8.76C7.30427 7.77333 8.7976 7.28 10.6909 7.28ZM34.1806 7.4L31.2206 27.96C31.114 28.68 31.194 29.2133 31.4606 29.56C31.7273 29.9067 32.2473 30.08 33.0206 30.08H42.5806L42.4606 34.72C40.674 34.9067 38.7273 35.0133 36.6206 35.04C34.5406 35.0667 32.5006 35.08 30.5006 35.08C28.6606 35.08 27.2206 34.5467 26.1806 33.48C25.1406 32.3867 24.7673 30.8933 25.0606 29L28.0206 7.4H34.1806ZM55.5106 7.4L51.6306 35H45.5506L49.4306 7.4H55.5106ZM81.4713 7.4L80.8313 12.2H72.5513L69.3513 35H63.2313L66.4313 12.2H58.1913L58.8713 7.4H81.4713ZM90.3394 7.28C92.5527 7.28 94.7927 7.30667 97.0594 7.36C99.326 7.38666 101.393 7.49333 103.259 7.68L102.539 12.12H92.2194C91.4194 12.12 90.8327 12.2933 90.4594 12.64C90.1127 12.96 89.886 13.5067 89.7794 14.28L89.1794 18.52H100.099L99.5794 22.76H88.6194L87.8594 28.2C87.646 29.5867 88.2594 30.28 89.6994 30.28H99.8994L99.7794 34.72C97.9394 34.9333 95.9127 35.04 93.6994 35.04C91.5127 35.0667 89.4327 35.08 87.4594 35.08C85.2994 35.08 83.726 34.48 82.7394 33.28C81.7527 32.08 81.3927 30.5067 81.6594 28.56L83.8994 12.72C84.1127 11.04 84.766 9.72 85.8594 8.76C86.9527 7.77333 88.446 7.28 90.3394 7.28Z" fill="#FF0066"/>
</svg>
